version 1.00
96
[-2.98283,22.3605,0][-0,1,-0][0.875,0.625,0][0,22.3605,2.98283][-0,1,-0][0.75,0.75,0][0,22.3605,0][-0,1,-0][0.75,0.625,0][0,22.3605,2.98283][-0,-0,1][0.625,0.875,0][-2.98283,14.1436,2.98283][-0,-0,1][0.5,1,0][0,14.1436,2.98283][-0,-0,1][0.5,0.875,0][-2.98283,22.3605,0][-1,-0,-0][0.625,0.125,0][-2.98283,14.1436,-2.98283][-1,-0,-0][0.5,0.25,0][-2.98283,14.1436,0][-1,-0,-0][0.5,0.125,0][2.98283,5.9266,0][-0,-1,-0][0.375,0.625,0][0,5.9266,2.98283][-0,-1,-0][0.25,0.75,0][0,5.9266,0][-0,-1,-0][0.25,0.625,0][2.98283,22.3605,0][1,-0,-0][0.625,0.625,0][2.98283,14.1436,2.98283][1,-0,-0][0.5,0.75,0][2.98283,14.1436,0][1,-0,-0][0.5,0.625,0][0,22.3605,-2.98283][-0,-0,-1][0.625,0.375,0][2.98283,14.1436,-2.98283][-0,-0,-1][0.5,0.5,0][0,14.1436,-2.98283][-0,-0,-1][0.5,0.375,0][0,14.1436,-2.98283][-0,-0,-1][0.5,0.375,0][2.98283,5.9266,-2.98283][-0,-0,-1][0.375,0.5,0][0,5.9266,-2.98283][-0,-0,-1][0.375,0.375,0][-2.98283,14.1436,-2.98283][-0,-0,-1][0.5,0.25,0][0,5.9266,-2.98283][-0,-0,-1][0.375,0.375,0][-2.98283,5.9266,-2.98283][-0,-0,-1][0.375,0.25,0][-2.98283,22.3605,-2.98283][-0,-0,-1][0.625,0.25,0][0,14.1436,-2.98283][-0,-0,-1][0.5,0.375,0][-2.98283,14.1436,-2.98283][-0,-0,-1][0.5,0.25,0][2.98283,14.1436,0][1,-0,-0][0.5,0.625,0][2.98283,5.9266,2.98283][1,-0,-0][0.375,0.75,0][2.98283,5.9266,0][1,-0,-0][0.375,0.625,0][2.98283,14.1436,-2.98283][1,-0,-0][0.5,0.5,0][2.98283,5.9266,0][1,-0,-0][0.375,0.625,0][2.98283,5.9266,-2.98283][1,-0,-0][0.375,0.5,0][2.98283,22.3605,-2.98283][1,-0,-0][0.625,0.5,0][2.98283,14.1436,0][1,-0,-0][0.5,0.625,0][2.98283,14.1436,-2.98283][1,-0,-0][0.5,0.5,0][0,5.9266,0][-0,-1,-0][0.25,0.625,0][-2.98283,5.9266,2.98283][-0,-1,-0][0.125,0.75,0][-2.98283,5.9266,0][-0,-1,-0][0.125,0.625,0][0,5.9266,-2.98283][-0,-1,-0][0.25,0.5,0][-2.98283,5.9266,0][-0,-1,-0][0.125,0.625,0][-2.98283,5.9266,-2.98283][-0,-1,-0][0.125,0.5,0][2.98283,5.9266,-2.98283][-0,-1,-0][0.375,0.5,0][0,5.9266,0][-0,-1,-0][0.25,0.625,0][0,5.9266,-2.98283][-0,-1,-0][0.25,0.5,0][-2.98283,14.1436,0][-1,-0,-0][0.5,0.125,0][-2.98283,5.9266,-2.98283][-1,-0,-0][0.375,0.25,0][-2.98283,5.9266,0][-1,-0,-0][0.375,0.125,0][-2.98283,14.1436,2.98283][-1,-0,-0][0.5,0,0][-2.98283,5.9266,0][-1,-0,-0][0.375,0.125,0][-2.98283,5.9266,2.98283][-1,-0,-0][0.375,0,0][-2.98283,22.3605,2.98283][-1,-0,-0][0.625,0,0][-2.98283,14.1436,0][-1,-0,-0][0.5,0.125,0][-2.98283,14.1436,2.98283][-1,-0,-0][0.5,0,0][0,14.1436,2.98283][-0,-0,1][0.5,0.875,0][-2.98283,5.9266,2.98283][-0,-0,1][0.375,1,0][0,5.9266,2.98283][-0,-0,1][0.375,0.875,0][2.98283,14.1436,2.98283][-0,-0,1][0.5,0.75,0][0,5.9266,2.98283][-0,-0,1][0.375,0.875,0][2.98283,5.9266,2.98283][-0,-0,1][0.375,0.75,0][2.98283,22.3605,2.98283][-0,-0,1][0.625,0.75,0][0,14.1436,2.98283][-0,-0,1][0.5,0.875,0][2.98283,14.1436,2.98283][-0,-0,1][0.5,0.75,0][0,22.3605,0][-0,1,-0][0.75,0.625,0][2.98283,22.3605,2.98283][-0,1,-0][0.625,0.75,0][2.98283,22.3605,0][-0,1,-0][0.625,0.625,0][0,22.3605,-2.98283][-0,1,-0][0.75,0.5,0][2.98283,22.3605,0][-0,1,-0][0.625,0.625,0][2.98283,22.3605,-2.98283][-0,1,-0][0.625,0.5,0][-2.98283,22.3605,-2.98283][-0,1,-0][0.875,0.5,0][0,22.3605,0][-0,1,-0][0.75,0.625,0][0,22.3605,-2.98283][-0,1,-0][0.75,0.5,0][-2.98283,22.3605,0][-0,1,-0][0.875,0.625,0][-2.98283,22.3605,2.98283][-0,1,-0][0.875,0.75,0][0,22.3605,2.98283][-0,1,-0][0.75,0.75,0][0,22.3605,2.98283][-0,-0,1][0.625,0.875,0][-2.98283,22.3605,2.98283][-0,-0,1][0.625,1,0][-2.98283,14.1436,2.98283][-0,-0,1][0.5,1,0][-2.98283,22.3605,0][-1,-0,-0][0.625,0.125,0][-2.98283,22.3605,-2.98283][-1,-0,-0][0.625,0.25,0][-2.98283,14.1436,-2.98283][-1,-0,-0][0.5,0.25,0][2.98283,5.9266,0][-0,-1,-0][0.375,0.625,0][2.98283,5.9266,2.98283][-0,-1,-0][0.375,0.75,0][0,5.9266,2.98283][-0,-1,-0][0.25,0.75,0][2.98283,22.3605,0][1,-0,-0][0.625,0.625,0][2.98283,22.3605,2.98283][1,-0,-0][0.625,0.75,0][2.98283,14.1436,2.98283][1,-0,-0][0.5,0.75,0][0,22.3605,-2.98283][-0,-0,-1][0.625,0.375,0][2.98283,22.3605,-2.98283][-0,-0,-1][0.625,0.5,0][2.98283,14.1436,-2.98283][-0,-0,-1][0.5,0.5,0][0,14.1436,-2.98283][-0,-0,-1][0.5,0.375,0][2.98283,14.1436,-2.98283][-0,-0,-1][0.5,0.5,0][2.98283,5.9266,-2.98283][-0,-0,-1][0.375,0.5,0][-2.98283,14.1436,-2.98283][-0,-0,-1][0.5,0.25,0][0,14.1436,-2.98283][-0,-0,-1][0.5,0.375,0][0,5.9266,-2.98283][-0,-0,-1][0.375,0.375,0][-2.98283,22.3605,-2.98283][-0,-0,-1][0.625,0.25,0][0,22.3605,-2.98283][-0,-0,-1][0.625,0.375,0][0,14.1436,-2.98283][-0,-0,-1][0.5,0.375,0][2.98283,14.1436,0][1,-0,-0][0.5,0.625,0][2.98283,14.1436,2.98283][1,-0,-0][0.5,0.75,0][2.98283,5.9266,2.98283][1,-0,-0][0.375,0.75,0][2.98283,14.1436,-2.98283][1,-0,-0][0.5,0.5,0][2.98283,14.1436,0][1,-0,-0][0.5,0.625,0][2.98283,5.9266,0][1,-0,-0][0.375,0.625,0][2.98283,22.3605,-2.98283][1,-0,-0][0.625,0.5,0][2.98283,22.3605,0][1,-0,-0][0.625,0.625,0][2.98283,14.1436,0][1,-0,-0][0.5,0.625,0][0,5.9266,0][-0,-1,-0][0.25,0.625,0][0,5.9266,2.98283][-0,-1,-0][0.25,0.75,0][-2.98283,5.9266,2.98283][-0,-1,-0][0.125,0.75,0][0,5.9266,-2.98283][-0,-1,-0][0.25,0.5,0][0,5.9266,0][-0,-1,-0][0.25,0.625,0][-2.98283,5.9266,0][-0,-1,-0][0.125,0.625,0][2.98283,5.9266,-2.98283][-0,-1,-0][0.375,0.5,0][2.98283,5.9266,0][-0,-1,-0][0.375,0.625,0][0,5.9266,0][-0,-1,-0][0.25,0.625,0][-2.98283,14.1436,0][-1,-0,-0][0.5,0.125,0][-2.98283,14.1436,-2.98283][-1,-0,-0][0.5,0.25,0][-2.98283,5.9266,-2.98283][-1,-0,-0][0.375,0.25,0][-2.98283,14.1436,2.98283][-1,-0,-0][0.5,0,0][-2.98283,14.1436,0][-1,-0,-0][0.5,0.125,0][-2.98283,5.9266,0][-1,-0,-0][0.375,0.125,0][-2.98283,22.3605,2.98283][-1,-0,-0][0.625,0,0][-2.98283,22.3605,0][-1,-0,-0][0.625,0.125,0][-2.98283,14.1436,0][-1,-0,-0][0.5,0.125,0][0,14.1436,2.98283][-0,-0,1][0.5,0.875,0][-2.98283,14.1436,2.98283][-0,-0,1][0.5,1,0][-2.98283,5.9266,2.98283][-0,-0,1][0.375,1,0][2.98283,14.1436,2.98283][-0,-0,1][0.5,0.75,0][0,14.1436,2.98283][-0,-0,1][0.5,0.875,0][0,5.9266,2.98283][-0,-0,1][0.375,0.875,0][2.98283,22.3605,2.98283][-0,-0,1][0.625,0.75,0][0,22.3605,2.98283][-0,-0,1][0.625,0.875,0][0,14.1436,2.98283][-0,-0,1][0.5,0.875,0][0,22.3605,0][-0,1,-0][0.75,0.625,0][0,22.3605,2.98283][-0,1,-0][0.75,0.75,0][2.98283,22.3605,2.98283][-0,1,-0][0.625,0.75,0][0,22.3605,-2.98283][-0,1,-0][0.75,0.5,0][0,22.3605,0][-0,1,-0][0.75,0.625,0][2.98283,22.3605,0][-0,1,-0][0.625,0.625,0][-2.98283,22.3605,-2.98283][-0,1,-0][0.875,0.5,0][-2.98283,22.3605,0][-0,1,-0][0.875,0.625,0][0,22.3605,0][-0,1,-0][0.75,0.625,0][-2.98283,1.44354,0][-0,1,-0][0.875,0.625,0][0,1.44354,2.98283][-0,1,-0][0.75,0.75,0][0,1.44354,0][-0,1,-0][0.75,0.625,0][0,1.44354,2.98283][-0,-0,1][0.625,0.875,0][-2.98283,-1.53928,2.98283][-0,-0,1][0.5,1,0][0,-1.53928,2.98283][-0,-0,1][0.5,0.875,0][-2.98283,1.44354,0][-1,-0,-0][0.625,0.125,0][-2.98283,-1.53928,-2.98283][-1,-0,-0][0.5,0.25,0][-2.98283,-1.53928,0][-1,-0,-0][0.5,0.125,0][2.98283,-4.52211,0][-0,-1,-0][0.375,0.625,0][0,-4.52211,2.98283][-0,-1,-0][0.25,0.75,0][0,-4.52211,0][-0,-1,-0][0.25,0.625,0][2.98283,1.44354,0][1,-0,-0][0.625,0.625,0][2.98283,-1.53928,2.98283][1,-0,-0][0.5,0.75,0][2.98283,-1.53928,0][1,-0,-0][0.5,0.625,0][0,1.44354,-2.98283][-0,-0,-1][0.625,0.375,0][2.98283,-1.53928,-2.98283][-0,-0,-1][0.5,0.5,0][0,-1.53928,-2.98283][-0,-0,-1][0.5,0.375,0][0,-1.53928,-2.98283][-0,-0,-1][0.5,0.375,0][2.98283,-4.52211,-2.98283][-0,-0,-1][0.375,0.5,0][0,-4.52211,-2.98283][-0,-0,-1][0.375,0.375,0][-2.98283,-1.53928,-2.98283][-0,-0,-1][0.5,0.25,0][0,-4.52211,-2.98283][-0,-0,-1][0.375,0.375,0][-2.98283,-4.52211,-2.98283][-0,-0,-1][0.375,0.25,0][-2.98283,1.44354,-2.98283][-0,-0,-1][0.625,0.25,0][0,-1.53928,-2.98283][-0,-0,-1][0.5,0.375,0][-2.98283,-1.53928,-2.98283][-0,-0,-1][0.5,0.25,0][2.98283,-1.53928,0][1,-0,-0][0.5,0.625,0][2.98283,-4.52211,2.98283][1,-0,-0][0.375,0.75,0][2.98283,-4.52211,0][1,-0,-0][0.375,0.625,0][2.98283,-1.53928,-2.98283][1,-0,-0][0.5,0.5,0][2.98283,-4.52211,0][1,-0,-0][0.375,0.625,0][2.98283,-4.52211,-2.98283][1,-0,-0][0.375,0.5,0][2.98283,1.44354,-2.98283][1,-0,-0][0.625,0.5,0][2.98283,-1.53928,0][1,-0,-0][0.5,0.625,0][2.98283,-1.53928,-2.98283][1,-0,-0][0.5,0.5,0][0,-4.52211,0][-0,-1,-0][0.25,0.625,0][-2.98283,-4.52211,2.98283][-0,-1,-0][0.125,0.75,0][-2.98283,-4.52211,0][-0,-1,-0][0.125,0.625,0][0,-4.52211,-2.98283][-0,-1,-0][0.25,0.5,0][-2.98283,-4.52211,0][-0,-1,-0][0.125,0.625,0][-2.98283,-4.52211,-2.98283][-0,-1,-0][0.125,0.5,0][2.98283,-4.52211,-2.98283][-0,-1,-0][0.375,0.5,0][0,-4.52211,0][-0,-1,-0][0.25,0.625,0][0,-4.52211,-2.98283][-0,-1,-0][0.25,0.5,0][-2.98283,-1.53928,0][-1,-0,-0][0.5,0.125,0][-2.98283,-4.52211,-2.98283][-1,-0,-0][0.375,0.25,0][-2.98283,-4.52211,0][-1,-0,-0][0.375,0.125,0][-2.98283,-1.53928,2.98283][-1,-0,-0][0.5,0,0][-2.98283,-4.52211,0][-1,-0,-0][0.375,0.125,0][-2.98283,-4.52211,2.98283][-1,-0,-0][0.375,0,0][-2.98283,1.44354,2.98283][-1,-0,-0][0.625,0,0][-2.98283,-1.53928,0][-1,-0,-0][0.5,0.125,0][-2.98283,-1.53928,2.98283][-1,-0,-0][0.5,0,0][0,-1.53928,2.98283][-0,-0,1][0.5,0.875,0][-2.98283,-4.52211,2.98283][-0,-0,1][0.375,1,0][0,-4.52211,2.98283][-0,-0,1][0.375,0.875,0][2.98283,-1.53928,2.98283][-0,-0,1][0.5,0.75,0][0,-4.52211,2.98283][-0,-0,1][0.375,0.875,0][2.98283,-4.52211,2.98283][-0,-0,1][0.375,0.75,0][2.98283,1.44354,2.98283][-0,-0,1][0.625,0.75,0][0,-1.53928,2.98283][-0,-0,1][0.5,0.875,0][2.98283,-1.53928,2.98283][-0,-0,1][0.5,0.75,0][0,1.44354,0][-0,1,-0][0.75,0.625,0][2.98283,1.44354,2.98283][-0,1,-0][0.625,0.75,0][2.98283,1.44354,0][-0,1,-0][0.625,0.625,0][0,1.44354,-2.98283][-0,1,-0][0.75,0.5,0][2.98283,1.44354,0][-0,1,-0][0.625,0.625,0][2.98283,1.44354,-2.98283][-0,1,-0][0.625,0.5,0][-2.98283,1.44354,-2.98283][-0,1,-0][0.875,0.5,0][0,1.44354,0][-0,1,-0][0.75,0.625,0][0,1.44354,-2.98283][-0,1,-0][0.75,0.5,0][-2.98283,1.44354,0][-0,1,-0][0.875,0.625,0][-2.98283,1.44354,2.98283][-0,1,-0][0.875,0.75,0][0,1.44354,2.98283][-0,1,-0][0.75,0.75,0][0,1.44354,2.98283][-0,-0,1][0.625,0.875,0][-2.98283,1.44354,2.98283][-0,-0,1][0.625,1,0][-2.98283,-1.53928,2.98283][-0,-0,1][0.5,1,0][-2.98283,1.44354,0][-1,-0,-0][0.625,0.125,0][-2.98283,1.44354,-2.98283][-1,-0,-0][0.625,0.25,0][-2.98283,-1.53928,-2.98283][-1,-0,-0][0.5,0.25,0][2.98283,-4.52211,0][-0,-1,-0][0.375,0.625,0][2.98283,-4.52211,2.98283][-0,-1,-0][0.375,0.75,0][0,-4.52211,2.98283][-0,-1,-0][0.25,0.75,0][2.98283,1.44354,0][1,-0,-0][0.625,0.625,0][2.98283,1.44354,2.98283][1,-0,-0][0.625,0.75,0][2.98283,-1.53928,2.98283][1,-0,-0][0.5,0.75,0][0,1.44354,-2.98283][-0,-0,-1][0.625,0.375,0][2.98283,1.44354,-2.98283][-0,-0,-1][0.625,0.5,0][2.98283,-1.53928,-2.98283][-0,-0,-1][0.5,0.5,0][0,-1.53928,-2.98283][-0,-0,-1][0.5,0.375,0][2.98283,-1.53928,-2.98283][-0,-0,-1][0.5,0.5,0][2.98283,-4.52211,-2.98283][-0,-0,-1][0.375,0.5,0][-2.98283,-1.53928,-2.98283][-0,-0,-1][0.5,0.25,0][0,-1.53928,-2.98283][-0,-0,-1][0.5,0.375,0][0,-4.52211,-2.98283][-0,-0,-1][0.375,0.375,0][-2.98283,1.44354,-2.98283][-0,-0,-1][0.625,0.25,0][0,1.44354,-2.98283][-0,-0,-1][0.625,0.375,0][0,-1.53928,-2.98283][-0,-0,-1][0.5,0.375,0][2.98283,-1.53928,0][1,-0,-0][0.5,0.625,0][2.98283,-1.53928,2.98283][1,-0,-0][0.5,0.75,0][2.98283,-4.52211,2.98283][1,-0,-0][0.375,0.75,0][2.98283,-1.53928,-2.98283][1,-0,-0][0.5,0.5,0][2.98283,-1.53928,0][1,-0,-0][0.5,0.625,0][2.98283,-4.52211,0][1,-0,-0][0.375,0.625,0][2.98283,1.44354,-2.98283][1,-0,-0][0.625,0.5,0][2.98283,1.44354,0][1,-0,-0][0.625,0.625,0][2.98283,-1.53928,0][1,-0,-0][0.5,0.625,0][0,-4.52211,0][-0,-1,-0][0.25,0.625,0][0,-4.52211,2.98283][-0,-1,-0][0.25,0.75,0][-2.98283,-4.52211,2.98283][-0,-1,-0][0.125,0.75,0][0,-4.52211,-2.98283][-0,-1,-0][0.25,0.5,0][0,-4.52211,0][-0,-1,-0][0.25,0.625,0][-2.98283,-4.52211,0][-0,-1,-0][0.125,0.625,0][2.98283,-4.52211,-2.98283][-0,-1,-0][0.375,0.5,0][2.98283,-4.52211,0][-0,-1,-0][0.375,0.625,0][0,-4.52211,0][-0,-1,-0][0.25,0.625,0][-2.98283,-1.53928,0][-1,-0,-0][0.5,0.125,0][-2.98283,-1.53928,-2.98283][-1,-0,-0][0.5,0.25,0][-2.98283,-4.52211,-2.98283][-1,-0,-0][0.375,0.25,0][-2.98283,-1.53928,2.98283][-1,-0,-0][0.5,0,0][-2.98283,-1.53928,0][-1,-0,-0][0.5,0.125,0][-2.98283,-4.52211,0][-1,-0,-0][0.375,0.125,0][-2.98283,1.44354,2.98283][-1,-0,-0][0.625,0,0][-2.98283,1.44354,0][-1,-0,-0][0.625,0.125,0][-2.98283,-1.53928,0][-1,-0,-0][0.5,0.125,0][0,-1.53928,2.98283][-0,-0,1][0.5,0.875,0][-2.98283,-1.53928,2.98283][-0,-0,1][0.5,1,0][-2.98283,-4.52211,2.98283][-0,-0,1][0.375,1,0][2.98283,-1.53928,2.98283][-0,-0,1][0.5,0.75,0][0,-1.53928,2.98283][-0,-0,1][0.5,0.875,0][0,-4.52211,2.98283][-0,-0,1][0.375,0.875,0][2.98283,1.44354,2.98283][-0,-0,1][0.625,0.75,0][0,1.44354,2.98283][-0,-0,1][0.625,0.875,0][0,-1.53928,2.98283][-0,-0,1][0.5,0.875,0][0,1.44354,0][-0,1,-0][0.75,0.625,0][0,1.44354,2.98283][-0,1,-0][0.75,0.75,0][2.98283,1.44354,2.98283][-0,1,-0][0.625,0.75,0][0,1.44354,-2.98283][-0,1,-0][0.75,0.5,0][0,1.44354,0][-0,1,-0][0.75,0.625,0][2.98283,1.44354,0][-0,1,-0][0.625,0.625,0][-2.98283,1.44354,-2.98283][-0,1,-0][0.875,0.5,0][-2.98283,1.44354,0][-0,1,-0][0.875,0.625,0][0,1.44354,0][-0,1,-0][0.75,0.625,0]